<svg width="53" height="53" viewBox="0 0 53 53" fill="none" xmlns="http://www.w3.org/2000/svg">
<path d="M0 0H53V53H0V0Z" fill="#F7DF1E"/>
<path d="M13.9356 44.2907L17.9916 41.8361C18.774 43.2235 19.4858 44.3973 21.1932 44.3973C22.8298 44.3973 23.8616 43.7571 23.8616 41.2669V24.3322H28.8423V41.3373C28.8423 46.496 25.8184 48.8441 21.4067 48.8441C17.4224 48.8441 15.1095 46.7805 13.9355 44.2903" fill="black"/>
<path d="M31.5476 43.757L35.603 41.4089C36.6706 43.1523 38.0581 44.433 40.5128 44.433C42.5765 44.433 43.8925 43.4012 43.8925 41.9781C43.8925 40.2704 42.5406 39.6655 40.2637 38.6697L39.0188 38.1357C35.4254 36.6062 33.0416 34.685 33.0416 30.6292C33.0416 26.8936 35.8877 24.0474 40.335 24.0474C43.5014 24.0474 45.7783 25.1504 47.4146 28.0321L43.5367 30.5224C42.6828 28.9927 41.7581 28.388 40.3351 28.388C38.8764 28.388 37.9514 29.313 37.9514 30.5224C37.9514 32.0166 38.8764 32.6216 41.0108 33.5466L42.2559 34.0803C46.4896 35.8948 48.8733 37.7446 48.8733 41.9069C48.8733 46.3899 45.3512 48.8445 40.6196 48.8445C35.9946 48.8445 33.0061 46.6388 31.5477 43.757" fill="black"/>
</svg>
