<svg width="53" height="60" viewBox="0 0 53 60" fill="none" xmlns="http://www.w3.org/2000/svg">
<g clip-path="url(#clip0_3:120)">
<path d="M26.5 59.721C25.677 59.721 24.9089 59.5016 24.1957 59.1175L16.8986 54.7831C15.8012 54.1796 16.3499 53.9601 16.6791 53.8504C18.1605 53.3566 18.4348 53.2469 19.971 52.369C20.1356 52.2593 20.3551 52.3142 20.5197 52.4239L26.1159 55.7707C26.3354 55.8804 26.6097 55.8804 26.7743 55.7707L48.6656 43.0968C48.8851 42.9871 48.9948 42.7676 48.9948 42.4933V17.2003C48.9948 16.926 48.8851 16.7065 48.6656 16.5968L26.7743 3.97774C26.5549 3.86801 26.2805 3.86801 26.1159 3.97774L4.22464 16.5968C4.00518 16.7065 3.89545 16.9809 3.89545 17.2003V42.4933C3.89545 42.7127 4.00518 42.9871 4.22464 43.0968L10.205 46.5533C13.442 48.1993 15.472 46.279 15.472 44.3587V19.3949C15.472 19.0657 15.7464 18.7365 16.1304 18.7365H18.9286C19.2578 18.7365 19.587 19.0109 19.587 19.3949V44.3587C19.587 48.6931 17.2277 51.2169 13.1128 51.2169C11.8509 51.2169 10.8634 51.2169 8.06522 49.8452L2.30435 46.5533C0.877847 45.7303 0 44.1941 0 42.5481V17.2552C0 15.6092 0.877847 14.073 2.30435 13.25L24.1957 0.576087C25.5673 -0.192029 27.4327 -0.192029 28.8043 0.576087L50.6957 13.25C52.1222 14.073 53 15.6092 53 17.2552V42.5481C53 44.1941 52.1222 45.7303 50.6957 46.5533L28.8043 59.2272C28.0911 59.5564 27.2681 59.721 26.5 59.721ZM33.2484 42.3287C23.647 42.3287 21.6718 37.9394 21.6718 34.2086C21.6718 33.8794 21.9462 33.5502 22.3302 33.5502H25.1832C25.5124 33.5502 25.7867 33.7697 25.7867 34.0989C26.2257 37.0067 27.4876 38.4332 33.3033 38.4332C37.912 38.4332 39.8872 37.3908 39.8872 34.9218C39.8872 33.4953 39.3385 32.4529 32.1511 31.7396C26.1708 31.1361 22.44 29.8194 22.44 25.0461C22.44 20.602 26.1708 17.9684 32.4255 17.9684C39.4482 17.9684 42.9048 20.3825 43.3437 25.6496C43.3437 25.8142 43.2888 25.9788 43.1791 26.1434C43.0694 26.2531 42.9048 26.3628 42.7402 26.3628H39.8872C39.6128 26.3628 39.3385 26.1434 39.2836 25.869C38.6253 22.8514 36.9244 21.8639 32.4255 21.8639C27.3778 21.8639 26.7743 23.6196 26.7743 24.9363C26.7743 26.5274 27.4876 27.0212 34.2909 27.8991C41.0393 28.7769 44.2215 30.0388 44.2215 34.7572C44.1667 39.5854 40.2164 42.3287 33.2484 42.3287Z" fill="#539E43"/>
</g>
<defs>
<clipPath id="clip0_3:120">
<rect width="53" height="59.832" fill="white"/>
</clipPath>
</defs>
</svg>
